# xmcd
#
# Track frame offsets:
#	150
#	13004
#	26929
#	46551
#	58883
#	75237
#	87884
#	106531
#	118168
#	134050
#
# Disc length: 1928 seconds
#
# Revision: 0
# Processed by: cddbd v1.5.2PL0 Copyright (c) Steve Scherf et al.
# Submitted via: EasyCDDAExtractor 4.6.0.1
#
DISCID=7807860a
DTITLE=Pirates Of The Mississippi - Dream You
DYEAR=1993
DGENRE=Country
TTITLE0=Dream You
TTITLE1=I Quit Lyin' In 1986
TTITLE2=The Night They Rocked The Grand Ole Opry
TTITLE3=The Wild Side Of Life
TTITLE4=I'm Here To Stay
TTITLE5=People My Age
TTITLE6=When Times Were Good
TTITLE7=Save The Wild Life
TTITLE8=What I Want And What I Get
TTITLE9=Pop From The Top
EXTD=
EXTT0=
EXTT1=
EXTT2=
EXTT3=
EXTT4=
EXTT5=
EXTT6=
EXTT7=
EXTT8=
EXTT9=
PLAYORDER=
